A:\Common\BMMB\PROJECTS\STRATO\DataSTRATO\DataSTRATO\0021~016 ID\0021~aa~ID 016\Standing_STRATO_ID_16.mot
version=1
nRows=70
nColumns=10
inDegrees=yes

BTS OpenSim export

endheader
time	[P0A]_force_vx	[P0A]_force_vy	[P0A]_force_vz	[P0A]_force_px	[P0A]_force_py	[P0A]_force_pz	[P0A]_torque_x	[P0A]_torque_y	[P0A]_torque_z
6.616000	7.17806196	770.80706787	0.60795867	0.19748533	0.00008589	0.35694209	-0.00037690	-1.24142528	-0.00021996
6.620000	7.14648771	770.82696533	0.57649869	0.19748719	0.00008589	0.35695499	-0.00037654	-1.24023163	-0.00021974
6.624000	7.12542820	770.83978271	0.54922116	0.19749001	0.00008589	0.35696962	-0.00037674	-1.24090838	-0.00021986
6.628000	7.12749577	770.82922363	0.53240407	0.19749400	0.00008588	0.35698879	-0.00037676	-1.24096632	-0.00021987
6.632000	7.14640808	770.81738281	0.53446871	0.19749908	0.00008588	0.35701108	-0.00037657	-1.24035299	-0.00021977
6.636000	7.16532373	770.81298828	0.53653473	0.19750577	0.00008587	0.35703251	-0.00037698	-1.24168229	-0.00022000
6.640000	7.18633890	770.80346680	0.53859586	0.19751316	0.00008586	0.35705599	-0.00037759	-1.24369872	-0.00022036
6.644000	7.21576166	770.78558350	0.54274154	0.19752117	0.00008586	0.35707882	-0.00037913	-1.24876380	-0.00022126
6.648000	7.25989151	770.76068115	0.54685909	0.19753061	0.00008585	0.35710460	-0.00038110	-1.25525117	-0.00022241
6.652000	7.31452417	770.72564697	0.55095565	0.19753994	0.00008584	0.35713404	-0.00038309	-1.26181233	-0.00022357
6.656000	7.35444307	770.69732666	0.55087727	0.19754905	0.00008583	0.35716942	-0.00038454	-1.26658440	-0.00022441
6.660000	7.37123871	770.68347168	0.54453981	0.19755551	0.00008582	0.35720417	-0.00038640	-1.27270412	-0.00022550
6.664000	7.38170481	770.66937256	0.52350396	0.19755997	0.00008582	0.35724199	-0.00038836	-1.27918053	-0.00022665
6.668000	7.39427853	770.64923096	0.50876725	0.19756407	0.00008581	0.35728258	-0.00039052	-1.28630066	-0.00022791
6.672000	7.42156696	770.62683105	0.49610475	0.19756776	0.00008580	0.35732540	-0.00039289	-1.29408336	-0.00022929
6.676000	7.44044256	770.60931396	0.47925562	0.19757058	0.00008579	0.35737374	-0.00039397	-1.29765821	-0.00022992
6.680000	7.43410873	770.60913086	0.46245578	0.19757083	0.00008578	0.35742319	-0.00039395	-1.29757071	-0.00022990
6.684000	7.41517210	770.63311768	0.44568336	0.19756828	0.00008577	0.35747623	-0.00039303	-1.29456568	-0.00022937
6.688000	7.40885782	770.65289307	0.43729281	0.19756478	0.00008576	0.35753185	-0.00039261	-1.29317892	-0.00022913
6.692000	7.41515541	770.67993164	0.42888030	0.19756189	0.00008575	0.35759017	-0.00039174	-1.29031789	-0.00022862
6.696000	7.41935539	770.71179199	0.42257407	0.19756012	0.00008574	0.35765260	-0.00039070	-1.28689241	-0.00022801
6.700000	7.41514063	770.76080322	0.40788054	0.19755580	0.00008573	0.35771942	-0.00038943	-1.28271139	-0.00022727
6.704000	7.40251017	770.81286621	0.38689858	0.19754755	0.00008572	0.35778686	-0.00038736	-1.27588725	-0.00022606
6.708000	7.40040016	770.86090088	0.37430251	0.19753829	0.00008571	0.35785756	-0.00038625	-1.27223599	-0.00022542
6.712000	7.41508198	770.89636230	0.35326761	0.19752820	0.00008570	0.35793114	-0.00038598	-1.27134705	-0.00022526
6.716000	7.44024706	770.91381836	0.32170323	0.19751918	0.00008569	0.35800162	-0.00038607	-1.27164066	-0.00022531
6.720000	7.45697927	770.92913818	0.27544397	0.19750814	0.00008569	0.35806838	-0.00038508	-1.26837993	-0.00022473
6.724000	7.47369528	770.92138672	0.22497772	0.19749586	0.00008568	0.35813648	-0.00038456	-1.26664722	-0.00022442
6.728000	7.49671173	770.89843750	0.17449719	0.19748174	0.00008567	0.35819981	-0.00038409	-1.26511526	-0.00022415
6.732000	7.52602530	770.84515381	0.12610126	0.19746804	0.00008566	0.35826007	-0.00038362	-1.26357090	-0.00022388
6.736000	7.55534315	770.77423096	0.08190501	0.19745882	0.00008566	0.35832357	-0.00038371	-1.26386714	-0.00022393
6.740000	7.57623005	770.69665527	0.02511444	0.19744992	0.00008565	0.35838202	-0.00038342	-1.26290357	-0.00022376
6.744000	7.59293079	770.61187744	-0.02116257	0.19744284	0.00008564	0.35843754	-0.00038300	-1.26152098	-0.00022352
6.748000	7.60334587	770.52111816	-0.05692203	0.19743682	0.00008563	0.35849461	-0.00038217	-1.25877047	-0.00022303
6.752000	7.61587811	770.42626953	-0.08217897	0.19743431	0.00008562	0.35855165	-0.00038178	-1.25750113	-0.00022280
6.756000	7.61370230	770.34564209	-0.10950784	0.19743362	0.00008561	0.35860744	-0.00038106	-1.25513804	-0.00022239
6.760000	7.60102749	770.27825928	-0.13471368	0.19743510	0.00008560	0.35866416	-0.00038077	-1.25417793	-0.00022222
6.764000	7.58837223	770.22601318	-0.15151116	0.19743820	0.00008559	0.35871938	-0.00038041	-1.25297046	-0.00022200
6.768000	7.56100464	770.19335938	-0.17248103	0.19744022	0.00008558	0.35876781	-0.00038000	-1.25164807	-0.00022177
6.772000	7.52313948	770.17193604	-0.19132824	0.19744401	0.00008557	0.35881644	-0.00037998	-1.25156868	-0.00022175
6.776000	7.47474575	770.16571045	-0.22276247	0.19744729	0.00008556	0.35886458	-0.00038021	-1.25232852	-0.00022189
6.780000	7.42424870	770.17181396	-0.25839448	0.19745012	0.00008555	0.35890943	-0.00038162	-1.25696003	-0.00022271
6.784000	7.36952972	770.18927002	-0.30662715	0.19745350	0.00008555	0.35895351	-0.00038360	-1.26350844	-0.00022387
6.788000	7.32952595	770.20593262	-0.35068506	0.19745928	0.00008554	0.35899174	-0.00038581	-1.27076888	-0.00022516
6.792000	7.29371881	770.21234131	-0.39685446	0.19746545	0.00008553	0.35902664	-0.00038785	-1.27747941	-0.00022634
6.796000	7.26000071	770.21691895	-0.44933215	0.19747388	0.00008552	0.35905859	-0.00039005	-1.28475356	-0.00022763
6.800000	7.24520493	770.21252441	-0.49554193	0.19748433	0.00008551	0.35909122	-0.00039280	-1.29380715	-0.00022924
6.804000	7.24722004	770.19580078	-0.53968424	0.19749428	0.00008550	0.35912064	-0.00039533	-1.30211842	-0.00023071
6.808000	7.25766516	770.16906738	-0.56913286	0.19750574	0.00008550	0.35914725	-0.00039723	-1.30839610	-0.00023182
6.812000	7.26600266	770.13525391	-0.60067934	0.19751950	0.00008549	0.35917044	-0.00039797	-1.31082821	-0.00023225
6.816000	7.28487206	770.09545898	-0.61753339	0.19753306	0.00008548	0.35919100	-0.00039893	-1.31397820	-0.00023281
6.820000	7.29745579	770.05853271	-0.62596768	0.19754584	0.00008547	0.35921335	-0.00039970	-1.31651092	-0.00023326
6.824000	7.31004286	770.03100586	-0.63229895	0.19755934	0.00008546	0.35923484	-0.00040023	-1.31827962	-0.00023357
6.828000	7.31422234	770.01647949	-0.64281744	0.19757245	0.00008546	0.35925528	-0.00040053	-1.31925952	-0.00023375
6.832000	7.30998564	770.01611328	-0.66172487	0.19758494	0.00008545	0.35927159	-0.00039978	-1.31677186	-0.00023331
6.836000	7.29734993	770.03216553	-0.67851168	0.19759946	0.00008544	0.35928455	-0.00039918	-1.31480467	-0.00023296
6.840000	7.28258753	770.06158447	-0.71210593	0.19761504	0.00008544	0.35929418	-0.00039881	-1.31360710	-0.00023275
6.844000	7.27414513	770.10205078	-0.73940659	0.19763112	0.00008543	0.35930216	-0.00039901	-1.31426632	-0.00023286
6.848000	7.25729370	770.14880371	-0.76879317	0.19764775	0.00008542	0.35930815	-0.00039874	-1.31337166	-0.00023270
6.852000	7.24883080	770.19061279	-0.80660343	0.19766442	0.00008542	0.35930833	-0.00039818	-1.31152797	-0.00023238
6.856000	7.25298071	770.23046875	-0.84233540	0.19768271	0.00008541	0.35930455	-0.00039821	-1.31160069	-0.00023239
6.860000	7.27607155	770.25122070	-0.85918927	0.19770122	0.00008541	0.35929835	-0.00039852	-1.31263685	-0.00023257
6.864000	7.30128717	770.25982666	-0.86133629	0.19771969	0.00008541	0.35928795	-0.00039923	-1.31498885	-0.00023299
6.868000	7.32650185	770.26440430	-0.86348456	0.19773856	0.00008540	0.35927582	-0.00039906	-1.31442070	-0.00023289
6.872000	7.35174608	770.26403809	-0.84881955	0.19775717	0.00008540	0.35926071	-0.00039898	-1.31416082	-0.00023284
6.876000	7.36857224	770.25054932	-0.83834326	0.19777395	0.00008540	0.35924274	-0.00039836	-1.31210494	-0.00023248
6.880000	7.38330173	770.22485352	-0.82366240	0.19779016	0.00008540	0.35922021	-0.00039698	-1.30755258	-0.00023167
6.884000	7.37912178	770.20251465	-0.80684453	0.19780642	0.00008540	0.35919651	-0.00039586	-1.30388618	-0.00023102
6.888000	7.35603952	770.18304443	-0.78578746	0.19782107	0.00008540	0.35917160	-0.00039399	-1.29770541	-0.00022993
6.892000	7.31401300	770.17694092	-0.78360879	0.19783504	0.00008540	0.35914472	-0.00039235	-1.29232967	-0.00022898
